<svg xmlns="http://www.w3.org/2000/svg" xmlns:xlink="http://www.w3.org/1999/xlink" viewBox="0 0 421.65 512"><defs><style>.cls-1{fill:none;}.cls-2{fill:#eab339;}.cls-3{fill:#f4f4f4;}.cls-4{clip-path:url(#clip-path);}.cls-5{fill:#f1c400;}.cls-6{fill:#b8bbcb;}.cls-7{fill:#e6eff6;}.cls-8{fill:#9e7c59;}.cls-9{fill:#ced6db;}.cls-10{fill:#b00715;}.cls-11{fill:#a3a5b2;}.cls-12{fill:#423e3e;}.cls-13{fill:#7c5c40;}.cls-14{fill:#d8b75f;}.cls-15{fill:#d81335;}.cls-16{fill:#61a6bd;}.cls-17{fill:#ff85ae;}</style><clipPath id="clip-path"><circle id="_Clipping_Path_" data-name="&lt;Clipping Path&gt;" class="cls-1" cx="210.83" cy="210.83" r="150.68"/></clipPath></defs><title>church-marker</title><g id="Layer_2" data-name="Layer 2"><g id="Capa_1" data-name="Capa 1"><path class="cls-2" d="M421.65,210.83C421.65,95.57,329.16,1.91,214.35,0,97.77-1.88.71,92.94,0,209.53A210.73,210.73,0,0,0,108.88,395.37a91.51,91.51,0,0,1,32.38,30.81l47.38,73.71a26.37,26.37,0,0,0,44.36,0l47.39-73.71a91.76,91.76,0,0,1,32.46-30.85,210.73,210.73,0,0,0,108.8-184.5Z"/><circle id="_Path_" data-name="&lt;Path&gt;" class="cls-3" cx="210.83" cy="210.83" r="150.68"/><g class="cls-4"><polyline class="cls-5" points="221.01 174.15 221.01 128.48 249.54 128.48 249.54 108.84 221.01 108.84 221.01 82.74 201.32 82.74 201.32 108.84 172.79 108.84 172.79 128.48 201.32 128.48 201.32 174.15"/><polygon class="cls-6" points="351.74 290.27 351.74 363.42 69.92 363.42 69.92 290.27 84 275.84 124.15 258.08 150.55 246.41 264.19 241.94 345.82 274.58 347.5 279.06 351.74 290.27"/><polygon class="cls-7" points="282.5 211.49 282.5 363.44 139.15 363.44 139.15 211.49 156.05 194.46 168.76 181.66 207.57 172.84 210.2 172.24 230.56 179.74 257.91 189.82 267.64 195.31 282.4 203.63 282.5 211.49"/><path class="cls-8" d="M212.4,293.42h-1.88a25.43,25.43,0,0,0-25.43,25.43v44.58h52.74V318.85A25.43,25.43,0,0,0,212.4,293.42Z"/><polygon class="cls-9" points="282.5 211.49 282.5 223.9 210.84 193.82 139.15 223.91 139.15 211.49 156.05 194.46 207.57 172.84 210.84 171.46 230.56 179.74 267.64 195.31 282.4 203.63 282.5 211.49"/><polygon class="cls-10" points="128.59 215.94 210.84 181.41 293.09 215.94 293.09 193.59 210.84 159.06 128.59 193.59 128.59 215.94"/><polygon class="cls-11" points="139.15 251.79 139.15 274.14 69.92 303.19 69.92 290.27 84 275.84 124.15 258.08 139.15 251.79"/><polygon class="cls-11" points="351.74 290.27 351.74 303.19 282.5 274.14 282.5 251.79 347.5 279.06 351.74 290.27"/><polyline class="cls-10" points="139.15 261.22 60.14 294.37 60.14 272.02 139.15 238.87"/><polyline class="cls-10" points="282.5 238.87 361.51 272.02 361.51 294.37 282.5 261.22"/><path class="cls-12" d="M106.05,298.34h-1.1A14.91,14.91,0,0,0,90,313.25V339.4H121V313.25A14.91,14.91,0,0,0,106.05,298.34Z"/><path class="cls-12" d="M316.7,298.34h-1.1a14.91,14.91,0,0,0-14.91,14.91V339.4h30.93V313.25A14.91,14.91,0,0,0,316.7,298.34Z"/><path class="cls-13" d="M121,344H90a4.61,4.61,0,0,1-4.61-4.61V313.25a19.55,19.55,0,0,1,19.53-19.53h1.1a19.55,19.55,0,0,1,19.53,19.53V339.4A4.61,4.61,0,0,1,121,344Zm-26.32-9.23h21.71V313.25a10.31,10.31,0,0,0-10.3-10.3h-1.1a10.31,10.31,0,0,0-10.3,10.3Z"/><path class="cls-13" d="M331.62,344H300.69a4.61,4.61,0,0,1-4.61-4.61V313.25a19.55,19.55,0,0,1,19.53-19.53h1.1a19.55,19.55,0,0,1,19.53,19.53V339.4A4.61,4.61,0,0,1,331.62,344Zm-26.32-9.23H327V313.25A10.31,10.31,0,0,0,316.7,303h-1.1a10.31,10.31,0,0,0-10.3,10.3v21.53Z"/><rect class="cls-13" x="185.45" y="329.25" width="52.74" height="9.23"/><rect class="cls-13" x="207.21" y="293.42" width="9.23" height="72.96"/><circle class="cls-12" cx="210.83" cy="242.21" r="18.76"/><path class="cls-14" d="M236.92,216.11a36.92,36.92,0,1,0,10.81,26.1A36.81,36.81,0,0,0,236.92,216.11Zm-39.36,39.37A18.76,18.76,0,1,1,210.83,261,18.7,18.7,0,0,1,197.56,255.48Z"/><path class="cls-15" d="M247.73,242.21H229.59A18.69,18.69,0,0,0,224.09,229h0l12.83-12.83A36.79,36.79,0,0,1,247.73,242.21Z"/><path class="cls-15" d="M192.06,242.21a18.7,18.7,0,0,0,5.5,13.27l-12.83,12.83a36.79,36.79,0,0,1-10.81-26.1Z"/><path class="cls-16" d="M224.09,255.48l12.83,12.83a36.81,36.81,0,0,1-26.1,10.81V261a18.7,18.7,0,0,0,13.27-5.5Z"/><path class="cls-16" d="M210.83,205.31v18.15a18.73,18.73,0,0,0-13.26,5.49l-12.83-12.83A36.79,36.79,0,0,1,210.83,205.31Z"/><path class="cls-17" d="M197.56,228.94a18.7,18.7,0,0,0-5.5,13.27H173.92a36.79,36.79,0,0,1,10.81-26.1Z"/><path class="cls-17" d="M229.59,242.21h18.15a36.79,36.79,0,0,1-10.81,26.1l-12.83-12.83h0A18.69,18.69,0,0,0,229.59,242.21Z"/><path class="cls-13" d="M210.83,200.69a41.52,41.52,0,1,0,41.52,41.52A41.57,41.57,0,0,0,210.83,200.69Zm25.85,22.19a32.12,32.12,0,0,1,6.1,14.72h-9a23.24,23.24,0,0,0-3.46-8.32Zm-51.71,0,6.4,6.4a23.23,23.23,0,0,0-3.46,8.32h-9A32.14,32.14,0,0,1,185,222.88Zm0,38.66a32.13,32.13,0,0,1-6.1-14.72h9a23.24,23.24,0,0,0,3.46,8.32Zm21.24-51.29v9a23.25,23.25,0,0,0-8.32,3.46l-6.4-6.4A32.14,32.14,0,0,1,206.21,210.25Zm0,63.92a32.12,32.12,0,0,1-14.72-6.1l6.4-6.4a23.23,23.23,0,0,0,8.32,3.46v9Zm-9.53-32a14.15,14.15,0,1,1,14.15,14.15A14.16,14.16,0,0,1,196.68,242.21Zm18.76,32v-9a23.24,23.24,0,0,0,8.32-3.46l6.4,6.4A32.13,32.13,0,0,1,215.44,274.17Zm8.32-51.41a23.23,23.23,0,0,0-8.32-3.46v-9a32.13,32.13,0,0,1,14.72,6.1Zm12.92,38.79-6.4-6.4a23.23,23.23,0,0,0,3.46-8.32h9A32.12,32.12,0,0,1,236.68,261.54Z"/><path class="cls-13" d="M242.44,369.58h-9.23V318.85A20.84,20.84,0,0,0,212.4,298h-1.88a20.84,20.84,0,0,0-20.82,20.82v50.73h-9.23V318.85a30.08,30.08,0,0,1,30-30h1.88a30.08,30.08,0,0,1,30,30v50.73Z"/></g></g></g></svg>