<svg xmlns="http://www.w3.org/2000/svg" xmlns:xlink="http://www.w3.org/1999/xlink" viewBox="0 0 421.65 512.03"><defs><style>.cls-1{fill:none;}.cls-2{fill:#36cc64;}.cls-3{fill:#f4f4f4;}.cls-4{clip-path:url(#clip-path);}.cls-5{fill:#2bb6c9;}.cls-6{opacity:0.15;}.cls-10,.cls-6{isolation:isolate;}.cls-7{fill:#fed2a4;}.cls-8{fill:#ffbd86;}.cls-9{fill:#303030;}.cls-10{opacity:0.38;}.cls-11{fill:#fcfcfc;}</style><clipPath id="clip-path"><circle class="cls-1" cx="210.83" cy="210.86" r="150.68"/></clipPath></defs><title>ongoing1-marker</title><g id="Layer_2" data-name="Layer 2"><g id="Layer_1-2" data-name="Layer 1"><path class="cls-2" d="M421.65,210.86C421.65,95.6,329.16,1.94,214.35,0,97.77-1.85.71,93,0,209.56A210.73,210.73,0,0,0,108.88,395.4a91.51,91.51,0,0,1,32.38,30.81l47.38,73.71a26.37,26.37,0,0,0,44.36,0l47.39-73.71a91.76,91.76,0,0,1,32.46-30.85,210.73,210.73,0,0,0,108.8-184.5Z"/><circle class="cls-3" cx="210.83" cy="210.86" r="150.68"/><g class="cls-4"><path class="cls-5" d="M363.73,347.42v12.23a147.5,147.5,0,0,1-133.42,0V347.42A47.49,47.49,0,0,1,277.8,300h38.45A47.49,47.49,0,0,1,363.73,347.42Z"/><path class="cls-6" d="M363.73,347.43v12.23a149.29,149.29,0,0,1-18.66,7.92V354.2c0-25.11-11.37-46.44-33.82-54.25h5a47.48,47.48,0,0,1,47.52,47.44Z"/><path class="cls-7" d="M297,177.89h60.47c0-18.57-21-46.25-61.63-46.25-36.49,0-59.32,22.48-59.32,46.25Z"/><path class="cls-7" d="M358.29,211.89h-.8v-34H236.54v34h-.8a13.43,13.43,0,0,0,0,26.87h.8v.43a43.66,43.66,0,0,0,43.66,43.66h0a76.23,76.23,0,0,0,33.64,0,44.59,44.59,0,0,0,30.87-12.78,43.52,43.52,0,0,0,12.78-30.87v-.43h.8a13.43,13.43,0,0,0,0-26.87Z"/><path class="cls-7" d="M297,317.29a17.23,17.23,0,0,1-17.22-17.22V282.84h34.45v17.23A17.23,17.23,0,0,1,297,317.29Z"/><path class="cls-7" d="M279.78,282.84h34.46v3.09a87.63,87.63,0,0,1-34.46,0Z"/><path class="cls-8" d="M371.73,225.32a13.44,13.44,0,0,1-13.43,13.43h-.8v.43a43.66,43.66,0,0,1-43.66,43.66H301.29c24.86-5.73,34.14-18.57,37.14-23.45,5.09-8.34,5.36-22.07,5.67-49.19.26-22.7.33-34.21-2.93-42.64-7.06-18.42-21.93-29.22-31.34-34.7,7,1.33,31,6.74,41.67,26.33,3.68,6.79,6,13.95,6,18.75v34h.8a13.45,13.45,0,0,1,13.43,13.44Z"/><path class="cls-9" d="M192.05,353.62v12.23a147.5,147.5,0,0,1-133.42,0V353.62a47.49,47.49,0,0,1,47.49-47.47h38.45A47.49,47.49,0,0,1,192.05,353.62Z"/><path class="cls-10" d="M192.05,353.63v12.23a149.29,149.29,0,0,1-18.66,7.92V360.41c0-25.11-11.37-46.44-33.82-54.25h5a47.48,47.48,0,0,1,47.52,47.44Z"/><path class="cls-7" d="M125.33,184.09h60.47c0-18.57-21-46.25-61.63-46.25-36.49,0-59.32,22.48-59.32,46.25Z"/><path class="cls-7" d="M186.61,218.09h-.8v-34H64.86v34h-.8a13.43,13.43,0,0,0,0,26.87h.8v.43A43.66,43.66,0,0,0,108.51,289h0a76.23,76.23,0,0,0,33.64,0A44.59,44.59,0,0,0,173,276.26a43.52,43.52,0,0,0,12.78-30.87V245h.8a13.43,13.43,0,0,0,0-26.87Z"/><path class="cls-11" d="M125.34,323.49a17.23,17.23,0,0,1-17.22-17.22V289h34.45v17.23A17.23,17.23,0,0,1,125.34,323.49Z"/><path class="cls-7" d="M108.1,289h34.46v3.09a87.63,87.63,0,0,1-34.46,0Z"/><path class="cls-9" d="M121.74,329.4c-8-6.73-17.83-13.47-25.75-20.2l6.19-14c5.86,2,13.68,3.91,19.55,5.86Z"/><path class="cls-9" d="M128.94,329.4c7.93-6.73,17.83-13.47,25.75-20.2l-6.19-14c-5.86,2-13.68,3.91-19.55,5.86Z"/><path class="cls-8" d="M200,231.52a13.44,13.44,0,0,1-13.43,13.43h-.8v.43A43.66,43.66,0,0,1,142.16,289H129.61c24.86-5.73,34.14-18.57,37.14-23.45,5.09-8.34,5.36-22.07,5.67-49.19.26-22.7.33-34.21-2.93-42.64-7.06-18.42-21.93-29.22-31.34-34.7,7,1.33,31,6.74,41.67,26.33,3.68,6.79,6,13.95,6,18.75v34h.8A13.45,13.45,0,0,1,200,231.53Z"/><path class="cls-9" d="M150.58,184.09c.33,2,3.28,18,17.75,25.34a32.25,32.25,0,0,0,17.48,3.18c2.18-4.38,10.54-22.48,3.53-42.51-1.86-5.32-6.95-19.9-21.5-25.93a35.5,35.5,0,0,0-19.36-2,45.18,45.18,0,0,0-15.33-9.45C105.78,122.9,78.21,145,73,149.38c-5.81,4.89-15.43,13.25-20,27.61-3.6,11.21-6,31.82,4.32,39.26,4.46,3.23,11.44,4.08,41.78-8A476.72,476.72,0,0,0,150.58,184.09Z"/></g></g></g></svg>