<svg xmlns="http://www.w3.org/2000/svg" viewBox="0 0 421.65 512"><defs><style>.cls-1{fill:#2bb6c9;}.cls-2{fill:#f4f4f4;}.cls-3{opacity:0.15;}.cls-4{fill:#fed2a4;}.cls-5{fill:#ffbd86;}</style></defs><title>user-marker</title><g id="Layer_2" data-name="Layer 2"><g id="Capa_1" data-name="Capa 1"><path class="cls-1" d="M421.65,210.83C421.65,95.57,329.16,1.91,214.35,0,97.77-1.88.71,92.94,0,209.53A210.73,210.73,0,0,0,108.88,395.37a91.51,91.51,0,0,1,32.38,30.81l47.38,73.71a26.37,26.37,0,0,0,44.36,0l47.39-73.71a91.76,91.76,0,0,1,32.46-30.85,210.73,210.73,0,0,0,108.8-184.5Z"/><circle class="cls-2" cx="210.83" cy="210.83" r="150.68"/><path class="cls-1" d="M279.09,332.68v12.51a150.93,150.93,0,0,1-136.52,0V332.68a48.59,48.59,0,0,1,48.59-48.57H230.5A48.59,48.59,0,0,1,279.09,332.68Z"/><path class="cls-3" d="M279.09,332.69V345.2A152.76,152.76,0,0,1,260,353.3V339.62c0-25.69-11.63-47.52-34.61-55.51h5.08A48.58,48.58,0,0,1,279.09,332.69Z"/><path class="cls-4" d="M210.82,159.21h61.88c0-19-21.47-47.32-63.06-47.32-37.34,0-60.7,23-60.7,47.32Z"/><path class="cls-4" d="M273.52,194h-.82V159.22H148.94V194h-.82a13.74,13.74,0,0,0,0,27.49h.82v.44a44.67,44.67,0,0,0,44.67,44.67,78,78,0,0,0,34.42,0,45.63,45.63,0,0,0,31.59-13.08,44.53,44.53,0,0,0,13.08-31.59v-.44h.82a13.74,13.74,0,0,0,0-27.49Z"/><path class="cls-4" d="M210.83,301.85a17.63,17.63,0,0,1-17.62-17.62V266.6h35.25v17.63A17.63,17.63,0,0,1,210.83,301.85Z"/><path class="cls-4" d="M193.19,266.6h35.26v3.16a89.67,89.67,0,0,1-35.26,0Q193.19,268.18,193.19,266.6Z"/><path class="cls-5" d="M287.27,207.74a13.75,13.75,0,0,1-13.74,13.74h-.82v.44A44.67,44.67,0,0,1,228,266.59H215.2c25.44-5.86,34.93-19,38-24,5.21-8.53,5.48-22.58,5.8-50.33.27-23.23.34-35-3-43.63-7.22-18.85-22.44-29.9-32.07-35.51,7.18,1.36,31.77,6.9,42.64,26.94,3.77,6.95,6.12,14.27,6.12,19.19V194h.82a13.76,13.76,0,0,1,13.74,13.75Z"/></g></g></svg>